HIERARCHY
ROOT mixamorig:Hips
{
	OFFSET 0.000000 201.639420 0.000000
	CHANNELS 6 Xposition Yposition Zposition Xrotation Yrotation Zrotation
	JOINT mixamorig:Spine
	{
		OFFSET 0.006200 19.524994 -2.481800
		CHANNELS 3 Xrotation Yrotation Zrotation
		JOINT mixamorig:Spine1
		{
			OFFSET -0.000900 22.835007 -2.825400
			CHANNELS 3 Xrotation Yrotation Zrotation
			JOINT mixamorig:Spine2
			{
				OFFSET -0.020600 26.552490 -3.193300
				CHANNELS 3 Xrotation Yrotation Zrotation
				JOINT mixamorig:Neck
				{
					OFFSET -0.060000 30.701813 1.352200
					CHANNELS 3 Xrotation Yrotation Zrotation
					JOINT mixamorig:Head
					{
						OFFSET -0.087200 22.547607 3.670900
						CHANNELS 3 Xrotation Yrotation Zrotation
						JOINT mixamorig:HeadTop_End
						{
							OFFSET -0.830600 40.355194 7.893500
							CHANNELS 3 Xrotation Yrotation Zrotation
							End Site
							{
								OFFSET 0.000000 30.592346 0.000000
							}
						}
						JOINT mixamorig:RightEye
						{
							OFFSET -6.302100 18.118591 16.197100
							CHANNELS 3 Xrotation Yrotation Zrotation
							End Site
							{
								OFFSET 0.000000 30.592346 0.000000
							}
						}
						JOINT mixamorig:LeftEye
						{
							OFFSET 6.741500 18.382690 16.401899
							CHANNELS 3 Xrotation Yrotation Zrotation
							End Site
							{
								OFFSET 0.000000 30.592346 0.000000
							}
						}
					}
				}
				JOINT mixamorig:LeftShoulder
				{
					OFFSET 11.924900 18.230499 1.425400
					CHANNELS 3 Xrotation Yrotation Zrotation
					JOINT mixamorig:LeftArm
					{
						OFFSET 25.435989 -0.697632 -5.229300
						CHANNELS 3 Xrotation Yrotation Zrotation
						JOINT mixamorig:LeftForeArm
						{
							OFFSET 54.684776 0.000000 0.000000
							CHANNELS 3 Xrotation Yrotation Zrotation
							JOINT mixamorig:LeftHand
							{
								OFFSET 55.098175 0.000000 0.000000
								CHANNELS 3 Xrotation Yrotation Zrotation
								JOINT mixamorig:LeftHandMiddle1
								{
									OFFSET 23.369751 0.000000 0.000000
									CHANNELS 3 Xrotation Yrotation Zrotation
									JOINT mixamorig:LeftHandMiddle2
									{
										OFFSET 6.378677 0.000000 0.000000
										CHANNELS 3 Xrotation Yrotation Zrotation
										JOINT mixamorig:LeftHandMiddle3
										{
											OFFSET 6.148331 0.000000 0.000000
											CHANNELS 3 Xrotation Yrotation Zrotation
											JOINT mixamorig:LeftHandMiddle4
											{
												OFFSET 6.582504 0.000000 0.000000
												CHANNELS 3 Xrotation Yrotation Zrotation
												End Site
												{
													OFFSET -1.168900 6.395691 1.028606
												}
											}
										}
									}
								}
								JOINT mixamorig:LeftHandThumb1
								{
									OFFSET 7.235672 -3.848206 5.434273
									CHANNELS 3 Xrotation Yrotation Zrotation
									JOINT mixamorig:LeftHandThumb2
									{
										OFFSET 6.568451 -3.792297 3.792300
										CHANNELS 3 Xrotation Yrotation Zrotation
										JOINT mixamorig:LeftHandThumb3
										{
											OFFSET 6.063080 -3.500519 3.500518
											CHANNELS 3 Xrotation Yrotation Zrotation
											JOINT mixamorig:LeftHandThumb4
											{
												OFFSET 4.793182 -2.767334 2.767349
												CHANNELS 3 Xrotation Yrotation Zrotation
												End Site
												{
													OFFSET 0.101639 6.054260 1.275483
												}
											}
										}
									}
								}
								JOINT mixamorig:LeftHandIndex1
								{
									OFFSET 23.101074 -0.309540 4.992809
									CHANNELS 3 Xrotation Yrotation Zrotation
									JOINT mixamorig:LeftHandIndex2
									{
										OFFSET 6.226883 0.000000 0.000000
										CHANNELS 3 Xrotation Yrotation Zrotation
										JOINT mixamorig:LeftHandIndex3
										{
											OFFSET 6.094330 0.000000 0.000000
											CHANNELS 3 Xrotation Yrotation Zrotation
											JOINT mixamorig:LeftHandIndex4
											{
												OFFSET 5.482605 0.000000 0.000000
												CHANNELS 3 Xrotation Yrotation Zrotation
												End Site
												{
													OFFSET -1.427902 5.233032 0.797164
												}
											}
										}
									}
								}
								JOINT mixamorig:LeftHandRing1
								{
									OFFSET 22.299240 0.021149 -3.964172
									CHANNELS 3 Xrotation Yrotation Zrotation
									JOINT mixamorig:LeftHandRing2
									{
										OFFSET 6.321869 0.000000 0.000000
										CHANNELS 3 Xrotation Yrotation Zrotation
										JOINT mixamorig:LeftHandRing3
										{
											OFFSET 5.899796 0.000000 0.000000
											CHANNELS 3 Xrotation Yrotation Zrotation
											JOINT mixamorig:LeftHandRing4
											{
												OFFSET 6.517899 0.000000 0.000000
												CHANNELS 3 Xrotation Yrotation Zrotation
												End Site
												{
													OFFSET -1.637299 6.232208 0.980890
												}
											}
										}
									}
								}
								JOINT mixamorig:LeftHandPinky1
								{
									OFFSET 20.463791 -0.302338 -8.562233
									CHANNELS 3 Xrotation Yrotation Zrotation
									JOINT mixamorig:LeftHandPinky2
									{
										OFFSET 6.908646 0.000000 0.000000
										CHANNELS 3 Xrotation Yrotation Zrotation
										JOINT mixamorig:LeftHandPinky3
										{
											OFFSET 4.622849 0.000000 0.000000
											CHANNELS 3 Xrotation Yrotation Zrotation
											JOINT mixamorig:LeftHandPinky4
											{
												OFFSET 5.216080 0.000000 0.000000
												CHANNELS 3 Xrotation Yrotation Zrotation
												End Site
												{
													OFFSET -0.606308 5.116241 0.814926
												}
											}
										}
									}
								}
							}
						}
					}
				}
				JOINT mixamorig:RightShoulder
				{
					OFFSET -12.001300 18.284088 1.348900
					CHANNELS 3 Xrotation Yrotation Zrotation
					JOINT mixamorig:RightArm
					{
						OFFSET -25.308500 -0.751312 -5.164599
						CHANNELS 3 Xrotation Yrotation Zrotation
						JOINT mixamorig:RightForeArm
						{
							OFFSET -54.684429 0.000000 0.000000
							CHANNELS 3 Xrotation Yrotation Zrotation
							JOINT mixamorig:RightHand
							{
								OFFSET -55.150291 0.000000 0.000000
								CHANNELS 3 Xrotation Yrotation Zrotation
								JOINT mixamorig:RightHandMiddle1
								{
									OFFSET -23.317566 0.000000 0.000000
									CHANNELS 3 Xrotation Yrotation Zrotation
									JOINT mixamorig:RightHandMiddle2
									{
										OFFSET -6.378403 0.000000 0.000000
										CHANNELS 3 Xrotation Yrotation Zrotation
										JOINT mixamorig:RightHandMiddle3
										{
											OFFSET -6.148193 0.000000 0.000000
											CHANNELS 3 Xrotation Yrotation Zrotation
											JOINT mixamorig:RightHandMiddle4
											{
												OFFSET -6.583389 0.000000 0.000000
												CHANNELS 3 Xrotation Yrotation Zrotation
												End Site
												{
													OFFSET 1.171692 6.395905 1.029786
												}
											}
										}
									}
								}
								JOINT mixamorig:RightHandThumb1
								{
									OFFSET -7.190521 -3.860474 5.435846
									CHANNELS 3 Xrotation Yrotation Zrotation
									JOINT mixamorig:RightHandThumb2
									{
										OFFSET -6.567429 -3.791718 3.791708
										CHANNELS 3 Xrotation Yrotation Zrotation
										JOINT mixamorig:RightHandThumb3
										{
											OFFSET -6.062469 -3.500153 3.500166
											CHANNELS 3 Xrotation Yrotation Zrotation
											JOINT mixamorig:RightHandThumb4
											{
												OFFSET -4.792618 -2.767029 2.767022
												CHANNELS 3 Xrotation Yrotation Zrotation
												End Site
												{
													OFFSET -0.100327 6.053253 1.276754
												}
											}
										}
									}
								}
								JOINT mixamorig:RightHandIndex1
								{
									OFFSET -23.048981 -0.310791 4.992554
									CHANNELS 3 Xrotation Yrotation Zrotation
									JOINT mixamorig:RightHandIndex2
									{
										OFFSET -6.227539 0.000000 0.000000
										CHANNELS 3 Xrotation Yrotation Zrotation
										JOINT mixamorig:RightHandIndex3
										{
											OFFSET -6.095047 0.000000 0.000000
											CHANNELS 3 Xrotation Yrotation Zrotation
											JOINT mixamorig:RightHandIndex4
											{
												OFFSET -5.484772 0.000000 0.000000
												CHANNELS 3 Xrotation Yrotation Zrotation
												End Site
												{
													OFFSET 1.420593 5.237305 0.797056
												}
											}
										}
									}
								}
								JOINT mixamorig:RightHandRing1
								{
									OFFSET -22.246323 0.020569 -3.963762
									CHANNELS 3 Xrotation Yrotation Zrotation
									JOINT mixamorig:RightHandRing2
									{
										OFFSET -6.322128 0.000000 0.000000
										CHANNELS 3 Xrotation Yrotation Zrotation
										JOINT mixamorig:RightHandRing3
										{
											OFFSET -5.900024 0.000000 0.000000
											CHANNELS 3 Xrotation Yrotation Zrotation
											JOINT mixamorig:RightHandRing4
											{
												OFFSET -6.518356 0.000000 0.000000
												CHANNELS 3 Xrotation Yrotation Zrotation
												End Site
												{
													OFFSET 1.636398 6.232697 0.982186
												}
											}
										}
									}
								}
								JOINT mixamorig:RightHandPinky1
								{
									OFFSET -20.411011 -0.303314 -8.561701
									CHANNELS 3 Xrotation Yrotation Zrotation
									JOINT mixamorig:RightHandPinky2
									{
										OFFSET -6.907349 0.000000 0.000000
										CHANNELS 3 Xrotation Yrotation Zrotation
										JOINT mixamorig:RightHandPinky3
										{
											OFFSET -4.623840 0.000000 0.000000
											CHANNELS 3 Xrotation Yrotation Zrotation
											JOINT mixamorig:RightHandPinky4
											{
												OFFSET -5.218353 0.000000 0.000000
												CHANNELS 3 Xrotation Yrotation Zrotation
												End Site
												{
													OFFSET 0.602097 5.118835 0.816273
												}
											}
										}
									}
								}
							}
						}
					}
				}
			}
		}
	}
	JOINT mixamorig:LeftUpLeg
	{
		OFFSET 18.168400 -13.561905 -0.039000
		CHANNELS 3 Xrotation Yrotation Zrotation
		JOINT mixamorig:LeftLeg
		{
			OFFSET 0.577358 -80.825211 -3.695000
			CHANNELS 3 Xrotation Yrotation Zrotation
			JOINT mixamorig:LeftFoot
			{
				OFFSET -0.577356 -83.370262 -6.520700
				CHANNELS 3 Xrotation Yrotation Zrotation
				JOINT mixamorig:LeftToeBase
				{
					OFFSET 0.750401 -20.798306 25.135401
					CHANNELS 3 Xrotation Yrotation Zrotation
					JOINT mixamorig:LeftToe_End
					{
						OFFSET -0.000500 0.001200 19.917799
						CHANNELS 3 Xrotation Yrotation Zrotation
						End Site
						{
							OFFSET 0.000000 19.917805 0.000000
						}
					}
				}
			}
		}
	}
	JOINT mixamorig:RightUpLeg
	{
		OFFSET -18.162500 -13.585098 -0.041000
		CHANNELS 3 Xrotation Yrotation Zrotation
		JOINT mixamorig:RightLeg
		{
			OFFSET -0.595024 -80.945297 -3.631900
			CHANNELS 3 Xrotation Yrotation Zrotation
			JOINT mixamorig:RightFoot
			{
				OFFSET 0.595024 -83.218193 -6.561200
				CHANNELS 3 Xrotation Yrotation Zrotation
				JOINT mixamorig:RightToeBase
				{
					OFFSET -0.753601 -20.807106 25.115000
					CHANNELS 3 Xrotation Yrotation Zrotation
					JOINT mixamorig:RightToe_End
					{
						OFFSET 0.000299 0.001700 19.918200
						CHANNELS 3 Xrotation Yrotation Zrotation
						End Site
						{
							OFFSET 0.000000 19.918203 0.000000
						}
					}
				}
			}
		}
	}
}
MOTION
Frames: 5
Frame Time: 0.033333
0.374573 200.312607 -0.375374 -3.753456 -5.224849 -3.507160 3.303689 1.534727 2.479810 1.151890 0.339457 1.552798 1.126015 0.361543 1.555886 5.626309 -0.078963 0.454682 -7.563345 1.375725 -0.080566 0.000000 -0.000000 0.000000 0.000000 -0.000000 0.000000 0.000000 -0.000000 0.000000 1.049450 -17.442070 -12.319430 3.916262 -19.989261 -69.765226 -0.000002 -1.459373 -0.000016 -33.230411 -1.364818 -6.186615 -0.076310 2.665776 -15.696827 0.268776 1.755798 -17.405545 0.300528 1.853980 -18.413340 0.000001 -0.000000 -0.000000 -0.663002 2.160313 4.832514 11.853534 25.421635 17.058310 -13.813941 3.537276 9.036009 0.000002 0.000002 0.000003 0.019864 -0.969578 -7.593546 0.267875 1.752889 -17.375718 0.057679 0.820952 -8.038013 -0.000001 0.000000 0.000001 0.136912 3.641778 -21.133522 0.386620 2.094789 -20.911910 0.283041 1.800634 -17.865010 0.000001 -0.000001 -0.000003 0.927730 5.555915 -27.128046 0.268793 1.755844 -17.405894 0.241909 1.667703 -16.505891 -0.000001 -0.000001 0.000008 1.203181 15.343660 14.705968 13.158861 27.555116 58.785136 -0.000002 6.693751 0.000024 -20.179087 -0.514097 6.782783 -0.136226 -2.205107 14.998891 0.214445 -1.398353 17.436884 0.239776 -1.476526 18.446282 -0.000001 -0.000001 0.000007 -1.665242 -0.174481 -4.219027 12.710933 -29.825346 -16.130991 -15.549400 -3.559388 -12.707102 0.000000 -0.000000 -0.000002 0.038557 1.262295 6.823720 0.213718 -1.396026 17.407029 0.046028 -0.653843 8.053239 -0.000002 0.000000 0.000001 0.030609 -3.075772 20.451002 0.308446 -1.668274 20.948540 0.225817 -1.434041 17.897085 0.000002 -0.000002 0.000002 0.748880 -4.885240 26.473776 0.214456 -1.398377 17.437248 0.193010 -1.328181 16.535828 -0.000002 -0.000000 -0.000001 -13.008427 14.262752 10.836328 13.096333 2.098459 4.210342 2.619601 0.419512 -7.303443 -4.928527 0.000005 -0.000002 -0.000000 0.000000 0.000000 -0.243511 -10.396282 3.111044 6.109777 -9.762754 -3.279709 -1.644797 -1.557818 2.850831 -7.282877 0.000003 -0.000000 -0.000000 -0.000000 -0.000000 
0.776444 200.313446 -0.483679 -3.206532 -5.912396 -3.430241 3.364221 1.750747 2.545398 1.179617 0.404597 1.573631 1.153601 0.426648 1.576852 5.429687 -0.078796 0.373432 -8.093205 1.500077 -0.387723 -0.000000 -0.000000 0.000000 -0.000000 -0.000000 0.000000 -0.000000 -0.000000 0.000000 1.148807 -17.518016 -12.132065 3.502325 -21.219868 -68.938131 -0.000008 -1.594739 -0.000011 -33.052156 -1.022737 -6.092742 -0.058114 2.763198 -16.096213 0.267263 1.750959 -17.355926 0.298916 1.849128 -18.363419 -0.000001 -0.000001 0.000001 -0.663012 2.160318 4.832516 12.171708 25.568851 16.874522 -13.783028 3.474387 8.950845 -0.000002 0.000000 -0.000002 0.080592 -0.754308 -8.202780 0.268068 1.753516 -17.382136 0.057771 0.821605 -8.044427 -0.000001 0.000001 -0.000000 0.135245 3.652258 -21.473731 0.387550 2.097220 -20.937323 0.283843 1.803116 -17.890504 -0.000000 0.000000 0.000003 0.876488 5.458661 -27.365757 0.269765 1.758937 -17.437563 0.242833 1.670807 -16.537522 0.000000 -0.000001 0.000001 1.174418 15.327061 14.695989 13.379701 26.583591 57.659617 0.000000 8.913347 0.000008 -19.877153 -0.306995 4.421692 -0.162283 -2.157712 15.531428 0.215558 -1.401895 17.482516 0.240968 -1.480088 18.492455 0.000004 -0.000002 0.000002 -1.665234 -0.174476 -4.219044 12.677489 -29.051984 -16.274222 -15.564244 -3.514990 -12.783838 0.000004 0.000001 0.000001 -0.043215 1.279941 7.391957 0.215299 -1.401068 17.471837 0.046763 -0.659025 8.117472 0.000002 -0.000000 0.000000 -0.020881 -2.963052 20.947191 0.309849 -1.671970 20.997142 0.227041 -1.437814 17.945683 -0.000000 0.000001 -0.000001 0.590302 -4.698270 27.036057 0.210713 -1.386416 17.283346 0.189422 -1.316036 16.380144 0.000001 0.000001 0.000001 -13.702167 14.722189 11.100916 13.352788 2.224867 3.667732 2.473357 0.454329 -6.915861 -4.928522 0.000004 0.000002 -0.000000 -0.000001 0.000000 -1.236709 -10.377455 2.799474 6.561699 -9.832141 -3.201749 -1.676948 -0.858686 2.948318 -7.286734 -0.000003 -0.000001 -0.000001 0.000000 0.000000 
1.360896 200.383423 -0.632632 -2.523480 -6.801658 -3.321016 3.499209 1.872097 2.629764 1.234167 0.427176 1.600757 1.208062 0.449205 1.604382 5.221863 -0.027102 0.342916 -8.657797 1.873657 -0.720446 0.000000 0.000000 0.000000 0.000000 0.000000 0.000000 0.000000 0.000000 0.000000 1.286846 -17.523147 -11.756122 3.062749 -22.389580 -68.173873 -0.000004 -1.678641 0.000012 -33.330200 -0.730282 -5.635057 -0.023698 2.933911 -16.806763 0.265978 1.746834 -17.313742 0.297550 1.845019 -18.321153 -0.000002 -0.000000 0.000000 -0.663014 2.160316 4.832494 12.517444 25.945852 16.653743 -13.916591 3.105562 9.097845 -0.000002 0.000002 0.000000 0.201392 -0.385704 -9.205423 0.268088 1.753567 -17.382671 0.057787 0.821661 -8.044946 -0.000002 0.000000 0.000002 0.146084 3.705302 -22.071669 0.389433 2.102126 -20.988589 0.285471 1.808148 -17.942202 -0.000003 -0.000000 -0.000006 0.785353 5.301548 -27.799471 0.272342 1.767106 -17.521279 0.245278 1.679017 -16.621175 0.000000 -0.000001 0.000003 1.157078 15.296323 14.603136 13.617425 25.277728 56.414965 -0.000008 11.801963 0.000004 -19.593678 0.335134 1.450245 -0.205416 -2.085599 16.366691 0.216843 -1.405952 17.534749 0.242338 -1.484192 18.545608 0.000003 0.000002 0.000002 -1.665239 -0.174474 -4.219033 12.652741 -28.182341 -16.399730 -15.581137 -3.464380 -12.872011 0.000001 -0.000000 -0.000004 -0.155129 1.289972 8.369422 0.215819 -1.402701 17.492920 0.047028 -0.660833 8.139828 0.000002 -0.000000 0.000002 -0.116165 -2.760341 21.680393 0.313095 -1.680357 21.107489 0.229825 -1.446398 18.056635 0.000002 0.000001 0.000004 0.317381 -4.391460 27.884958 0.209413 -1.382201 17.229261 0.188092 -1.311508 16.322258 -0.000004 -0.000001 0.000000 -14.323311 15.118069 11.220425 13.294568 2.683794 3.177462 2.468672 0.460598 -6.511770 -4.928528 0.000010 -0.000001 -0.000000 -0.000000 0.000000 -2.140794 -10.265712 2.488521 6.427442 -9.797257 -3.152696 -1.351665 -0.125855 3.045671 -7.297154 0.000009 -0.000000 -0.000000 -0.000002 -0.000000 
2.129338 200.470062 -0.865576 -1.637039 -7.914535 -3.150641 3.696197 1.861304 2.712967 1.312923 0.394330 1.632436 1.286791 0.416247 1.636866 5.017083 0.085692 0.401616 -9.267127 2.557601 -1.065278 -0.000000 -0.000000 -0.000000 -0.000000 -0.000000 -0.000000 -0.000000 -0.000000 -0.000000 1.467912 -17.436541 -11.170170 2.659007 -23.463626 -67.456178 -0.000006 -1.835917 0.000004 -33.763510 -0.567040 -4.512685 0.004022 3.062829 -17.376292 0.265587 1.745579 -17.300907 0.297132 1.843751 -18.308076 -0.000000 -0.000001 0.000002 -0.663012 2.160318 4.832513 12.883733 26.401295 16.519005 -13.971072 2.843427 9.261835 0.000003 -0.000001 -0.000003 0.319369 -0.063401 -10.082683 0.267719 1.752418 -17.370879 0.057612 0.820461 -8.033166 0.000000 0.000000 0.000003 0.176498 3.801183 -22.598564 0.391710 2.108047 -21.050677 0.287432 1.814185 -18.004090 -0.000002 0.000001 -0.000001 0.695864 5.157259 -28.100448 0.274627 1.774322 -17.595204 0.247455 1.686288 -16.695286 0.000000 -0.000002 -0.000002 1.136855 15.308240 14.468246 13.838453 23.741213 55.040222 0.000008 15.034279 -0.000008 -19.520641 1.360136 -1.989426 -0.225012 -2.086058 17.044595 0.219206 -1.413392 17.630694 0.244830 -1.491627 18.641997 -0.000001 -0.000001 0.000001 -1.665237 -0.174485 -4.219048 12.669515 -27.507977 -16.388463 -15.596356 -3.415031 -12.944581 -0.000001 0.000001 0.000001 -0.266152 1.285498 9.356459 0.216569 -1.405053 17.523330 0.047390 -0.663399 8.171624 0.000003 -0.000001 -0.000002 -0.212026 -2.568884 22.357144 0.319604 -1.697128 21.328551 0.235464 -1.463544 18.278368 -0.000001 0.000000 0.000001 0.006546 -4.059617 28.707172 0.211343 -1.388432 17.309245 0.189816 -1.317381 16.397481 -0.000002 -0.000000 0.000001 -15.063514 15.400512 11.216949 13.147813 3.524448 2.730420 2.514438 0.443507 -6.088910 -4.928525 0.000007 0.000000 0.000000 0.000000 0.000000 -3.296222 -9.949709 2.121170 6.223587 -9.022587 -3.030145 -0.874377 -0.111073 3.087710 -7.312435 0.000006 0.000000 0.000000 0.000003 0.000000 
3.068462 200.489319 -1.256726 -0.435323 -9.310221 -2.898357 3.921432 1.729558 2.767963 1.407566 0.311602 1.661933 1.381407 0.333159 1.667690 4.809788 0.261994 0.562188 -9.968959 3.572778 -1.393224 0.000000 -0.000000 0.000000 0.000000 -0.000000 0.000000 0.000000 -0.000000 0.000000 1.685404 -17.246392 -10.424015 2.354473 -24.354879 -66.675132 0.000011 -2.279861 0.000003 -33.959171 -0.515023 -2.689721 0.005276 3.071649 -17.451502 0.265810 1.746295 -17.308314 0.297339 1.844389 -18.314597 -0.000002 -0.000002 -0.000002 -0.663011 2.160316 4.832504 13.130069 27.217331 16.587371 -13.512070 3.109804 9.002176 0.000001 0.000000 0.000001 0.308790 -0.018365 -10.459381 0.267000 1.750099 -17.347123 0.057268 0.818048 -8.009466 -0.000003 -0.000001 -0.000001 0.240746 3.967230 -22.953867 0.394664 2.115694 -21.130691 0.289912 1.821792 -18.082349 -0.000001 0.000001 0.000004 0.607114 5.000358 -27.900244 0.275115 1.775866 -17.610979 0.247920 1.687859 -16.711292 0.000001 0.000000 0.000005 1.102395 15.391643 14.357621 13.961584 22.152399 53.542082 -0.000006 18.176989 0.000000 -19.720648 2.495411 -5.598001 -0.180735 -2.252412 17.284227 0.224179 -1.428955 17.831332 0.250073 -1.507026 18.841756 0.000004 -0.000004 -0.000002 -1.665247 -0.174481 -4.218998 12.773058 -27.136297 -16.081971 -15.608287 -3.354779 -12.954727 -0.000001 0.000001 0.000000 -0.396587 1.266408 10.238714 0.217837 -1.409086 17.575267 0.047959 -0.667345 8.220641 -0.000001 -0.000001 -0.000002 -0.274527 -2.460341 22.904527 0.329627 -1.722598 21.664873 0.244133 -1.489518 18.614718 0.000002 0.000001 0.000001 -0.229015 -3.815773 29.217999 0.217026 -1.406526 17.542236 0.195120 -1.335277 16.626743 0.000000 0.000000 0.000000 -16.294547 15.596727 11.246117 13.330493 4.700957 2.235233 2.439195 0.420966 -5.614113 -4.928525 0.000005 -0.000001 -0.000000 -0.000000 0.000000 -5.181625 -9.259916 1.784856 6.528828 -8.381553 -3.083310 -0.513009 -0.094345 3.275311 -7.330851 -0.000006 -0.000000 -0.000000 -0.000002 -0.000000 
